Light Narrow — SC.ufo
<glyph name="a.sc" format="1">
  <advance width="1109"/>
  <outline>
    <contour>
      <point x="674" y="1292" type="move" name="top"/>
    </contour>
    <contour>
      <point x="889" y="-121" type="move" name="ogonek"/>
    </contour>
    <contour>
      <point x="471" y="-121" type="move" name="bottom"/>
    </contour>
    <contour>
      <point x="-99" y="62" type="line"/>
      <point x="-105" y="0" type="line"/>
      <point x="297" y="0" type="line"/>
      <point x="302" y="62" type="line"/>
      <point x="150" y="84" type="line"/>
      <point x="586" y="1067" type="line"/>
      <point x="675" y="1245" type="line"/>
      <point x="636" y="1251" type="line"/>
      <point x="653" y="1075" type="line"/>
      <point x="799" y="82" type="line"/>
      <point x="652" y="62" type="line"/>
      <point x="647" y="0" type="line"/>
      <point x="1091" y="0" type="line"/>
      <point x="1096" y="62" type="line"/>
      <point x="959" y="86" type="line"/>
      <point x="755" y="1302" type="line"/>
      <point x="597" y="1302" type="line"/>
      <point x="17" y="82" type="line"/>
    </contour>
    <contour>
      <point x="242" y="474" type="line"/>
      <point x="223" y="386" type="line"/>
      <point x="785" y="386" type="line"/>
      <point x="786" y="474" type="line"/>
    </contour>
  </outline>
</glyph>
<glyph name="ae.sc" format="1">
  <advance width="1530"/>
  <outline>
    <contour>
      <point x="968" y="1292" type="move" name="top"/>
    </contour>
    <contour>
      <point x="573" y="62" type="line"/>
      <point x="564" y="0" type="line"/>
      <point x="1419" y="0" type="line"/>
      <point x="1478" y="271" type="line"/>
      <point x="1390" y="290" type="line"/>
      <point x="1307" y="102" type="line"/>
      <point x="842" y="84" type="line"/>
      <point x="910" y="620" type="line"/>
      <point x="1274" y="608" type="line"/>
      <point x="1288" y="732" type="line"/>
      <point x="919" y="712" type="line"/>
      <point x="986" y="1214" type="line"/>
      <point x="1357" y="1204" type="line"/>
      <point x="1384" y="1036" type="line"/>
      <point x="1474" y="1036" type="line"/>
      <point x="1486" y="1292" type="line"/>
      <point x="358" y="1292" type="line"/>
      <point x="347" y="1220" type="line"/>
      <point x="600" y="1204" type="line"/>
      <point x="6" y="82" type="line"/>
      <point x="-130" y="62" type="line"/>
      <point x="-139" y="0" type="line"/>
      <point x="329" y="0" type="line"/>
      <point x="334" y="62" type="line"/>
      <point x="154" y="84" type="line"/>
      <point x="315" y="416" type="line"/>
      <point x="726" y="416" type="line"/>
      <point x="685" y="82" type="line"/>
    </contour>
    <contour>
      <point x="361" y="504" type="line"/>
      <point x="712" y="1206" type="line"/>
      <point x="823" y="1202" type="line"/>
      <point x="735" y="504" type="line"/>
    </contour>
  </outline>
</glyph>
<glyph name="b.sc" format="1">
  <advance width="1075"/>
  <outline>
    <contour>
      <point x="626" y="1292" type="move" name="top"/>
    </contour>
    <contour>
      <point x="475" y="0" type="move" name="bottom"/>
    </contour>
    <contour>
      <point x="423" y="-12" type="curve"/>
      <point x="738" y="-12"/>
      <point x="987" y="108"/>
      <point x="988" y="418" type="curve"/>
      <point x="989" y="563"/>
      <point x="877" y="669"/>
      <point x="730" y="686" type="curve"/>
      <point x="901" y="732"/>
      <point x="1004" y="849"/>
      <point x="1004" y="1034" type="curve"/>
      <point x="1004" y="1175"/>
      <point x="909" y="1306"/>
      <point x="639" y="1306" type="curve"/>
      <point x="551" y="1306"/>
      <point x="473" y="1294"/>
      <point x="395" y="1292" type="curve"/>
      <point x="181" y="1292" type="line"/>
      <point x="174" y="1222" type="line"/>
      <point x="286" y="1204" type="line"/>
      <point x="133" y="84" type="line"/>
      <point x="11" y="62" type="line"/>
      <point x="5" y="0" type="line"/>
      <point x="195" y="0" type="line" smooth="yes"/>
      <point x="257" y="0"/>
      <point x="356" y="-12"/>
    </contour>
    <contour>
      <point x="278" y="98" type="curve"/>
      <point x="278" y="17" type="line"/>
      <point x="450" y="1285" type="line"/>
      <point x="419" y="1208" type="line"/>
      <point x="427" y="1214"/>
      <point x="555" y="1224"/>
      <point x="602" y="1224" type="curve"/>
      <point x="778" y="1224"/>
      <point x="849" y="1152"/>
      <point x="850" y="1017" type="curve"/>
      <point x="851" y="800"/>
      <point x="709" y="715"/>
      <point x="550" y="715" type="curve"/>
      <point x="503" y="715"/>
      <point x="386" y="714"/>
      <point x="335" y="714" type="curve"/>
      <point x="323" y="621" type="line"/>
      <point x="362" y="622"/>
      <point x="479" y="623"/>
      <point x="564" y="623" type="curve"/>
      <point x="734" y="623"/>
      <point x="821" y="551"/>
      <point x="822" y="403" type="curve"/>
      <point x="823" y="160"/>
      <point x="669" y="75"/>
      <point x="455" y="75" type="curve"/>
      <point x="404" y="75"/>
      <point x="264" y="83"/>
    </contour>
  </outline>
</glyph>
<glyph name="c.sc" format="1">
  <advance width="1029"/>
  <outline>
    <contour>
      <point x="648" y="1307" type="move" name="top"/>
    </contour>
    <contour>
      <point x="517" y="0" type="move" name="bottom"/>
    </contour>
    <contour>
      <point x="513" y="-14" type="curve"/>
      <point x="693" y="-14"/>
      <point x="824" y="41"/>
      <point x="891" y="66" type="curve"/>
      <point x="926" y="342" type="line"/>
      <point x="831" y="342" type="line"/>
      <point x="786" y="167"/>
      <point x="796" y="222"/>
      <point x="775" y="156" type="curve"/>
      <point x="726" y="98"/>
      <point x="615" y="74"/>
      <point x="540" y="74" type="curve"/>
      <point x="324" y="74"/>
      <point x="245" y="312"/>
      <point x="242" y="548" type="curve"/>
      <point x="239" y="846"/>
      <point x="379" y="1222"/>
      <point x="685" y="1222" type="curve"/>
      <point x="780" y="1222"/>
      <point x="829" y="1204"/>
      <point x="866" y="1180" type="curve"/>
      <point x="877" y="944" type="line"/>
      <point x="977" y="944" type="line"/>
      <point x="1030" y="1256" type="line"/>
      <point x="980" y="1256"/>
      <point x="877" y="1306"/>
      <point x="706" y="1306" type="curve"/>
      <point x="358" y="1306"/>
      <point x="68" y="1002"/>
      <point x="72" y="534" type="curve"/>
      <point x="74" y="266"/>
      <point x="194" y="-14"/>
    </contour>
  </outline>
</glyph>
<glyph name="d.sc" format="1">
  <advance width="1185"/>
  <outline>
    <contour>
      <point x="654" y="1292" type="move" name="top"/>
    </contour>
    <contour>
      <point x="482" y="0" type="move" name="bottom"/>
    </contour>
    <contour>
      <point x="465" y="-14" type="curve"/>
      <point x="897" y="-14"/>
      <point x="1125" y="334"/>
      <point x="1133" y="783" type="curve"/>
      <point x="1139" y="1090"/>
      <point x="999" y="1306"/>
      <point x="656" y="1306" type="curve"/>
      <point x="572" y="1306"/>
      <point x="488" y="1294"/>
      <point x="409" y="1292" type="curve"/>
      <point x="183" y="1292" type="line"/>
      <point x="176" y="1222" type="line"/>
      <point x="286" y="1204" type="line"/>
      <point x="133" y="84" type="line"/>
      <point x="10" y="62" type="line"/>
      <point x="2" y="0" type="line"/>
      <point x="209" y="0" type="line" smooth="yes"/>
      <point x="297" y="0"/>
      <point x="398" y="-14"/>
    </contour>
    <contour>
      <point x="259" y="103" type="curve"/>
      <point x="282" y="20" type="line"/>
      <point x="454" y="1280" type="line"/>
      <point x="414" y="1202" type="line"/>
      <point x="456" y="1209"/>
      <point x="546" y="1224"/>
      <point x="623" y="1224" type="curve"/>
      <point x="877" y="1224"/>
      <point x="977" y="1079"/>
      <point x="971" y="770" type="curve"/>
      <point x="965" y="438"/>
      <point x="819" y="73"/>
      <point x="497" y="72" type="curve"/>
      <point x="438" y="72"/>
      <point x="308" y="83"/>
    </contour>
  </outline>
</glyph>
<glyph name="e.sc" format="1">
  <advance width="1028"/>
  <outline>
    <contour>
      <point x="610" y="1292" type="move" name="top"/>
    </contour>
    <contour>
      <point x="781" y="0" type="move" name="ogonek"/>
    </contour>
    <contour>
      <point x="478" y="0" type="move" name="bottom"/>
    </contour>
    <contour>
      <point x="8" y="62" type="line"/>
      <point x="0" y="0" type="line"/>
      <point x="881" y="0" type="line"/>
      <point x="956" y="282" type="line"/>
      <point x="869" y="305" type="line"/>
      <point x="773" y="104" type="line"/>
      <point x="291" y="87" type="line"/>
      <point x="364" y="622" type="line"/>
      <point x="756" y="609" type="line"/>
      <point x="767" y="726" type="line"/>
      <point x="377" y="718" type="line"/>
      <point x="447" y="1216" type="line"/>
      <point x="840" y="1205" type="line"/>
      <point x="866" y="1023" type="line"/>
      <point x="955" y="1023" type="line"/>
      <point x="969" y="1292" type="line"/>
      <point x="184" y="1292" type="line"/>
      <point x="174" y="1222" type="line"/>
      <point x="287" y="1204" type="line"/>
      <point x="134" y="82" type="line"/>
    </contour>
  </outline>
</glyph>
<glyph name="ezh.sc" format="1">
  <advance width="984"/>
  <outline>
    <contour>
      <point x="373" y="-10" type="curve"/>
      <point x="703" y="-10"/>
      <point x="911" y="184"/>
      <point x="916" y="442" type="curve"/>
      <point x="920" y="658"/>
      <point x="752" y="765"/>
      <point x="530" y="758" type="curve"/>
      <point x="488" y="695" type="line"/>
      <point x="950" y="1218" type="line"/>
      <point x="960" y="1292" type="line"/>
      <point x="225" y="1292" type="line"/>
      <point x="196" y="990" type="line"/>
      <point x="286" y="990" type="line"/>
      <point x="336" y="1178" type="line"/>
      <point x="777" y="1178" type="line"/>
      <point x="673" y="1052" type="line"/>
      <point x="350" y="672" type="line"/>
      <point x="381" y="634" type="line"/>
      <point x="415" y="646"/>
      <point x="448" y="656"/>
      <point x="497" y="656" type="curve"/>
      <point x="658" y="653"/>
      <point x="752" y="570"/>
      <point x="749" y="424" type="curve"/>
      <point x="746" y="252"/>
      <point x="630" y="81"/>
      <point x="399" y="81" type="curve"/>
      <point x="263" y="81"/>
      <point x="197" y="120"/>
      <point x="197" y="128" type="curve"/>
      <point x="186" y="343" type="line"/>
      <point x="107" y="343" type="line"/>
      <point x="56" y="52" type="line" smooth="yes"/>
      <point x="62" y="50"/>
      <point x="220" y="-10"/>
    </contour>
  </outline>
</glyph>
<glyph name="f.sc" format="1">
  <advance width="963"/>
  <outline>
    <contour>
      <point x="618" y="1292" type="move" name="top"/>
    </contour>
    <contour>
      <point x="10" y="62" type="line"/>
      <point x="3" y="0" type="line"/>
      <point x="484" y="0" type="line"/>
      <point x="491" y="62" type="line"/>
      <point x="290" y="86" type="line"/>
      <point x="362" y="618" type="line"/>
      <point x="775" y="603" type="line"/>
      <point x="788" y="722" type="line"/>
      <point x="376" y="715" type="line"/>
      <point x="445" y="1214" type="line"/>
      <point x="858" y="1202" type="line"/>
      <point x="875" y="1022" type="line"/>
      <point x="973" y="1022" type="line"/>
      <point x="996" y="1292" type="line"/>
      <point x="182" y="1292" type="line"/>
      <point x="173" y="1222" type="line"/>
      <point x="287" y="1204" type="line"/>
      <point x="132" y="84" type="line"/>
    </contour>
  </outline>
</glyph>
<glyph name="g.sc" format="1">
  <advance width="1119"/>
  <outline>
    <contour>
      <point x="701" y="1292" type="move" name="top"/>
    </contour>
    <contour>
      <point x="554" y="0" type="move" name="bottom"/>
    </contour>
    <contour>
      <point x="504" y="-14" type="curve"/>
      <point x="638" y="-14"/>
      <point x="754" y="24"/>
      <point x="839" y="50" type="curve"/>
      <point x="884" y="64"/>
      <point x="924" y="76"/>
      <point x="956" y="78" type="curve"/>
      <point x="1034" y="618" type="line"/>
      <point x="653" y="618" type="line"/>
      <point x="643" y="534" type="line"/>
      <point x="860" y="520" type="line"/>
      <point x="809" y="150" type="line"/>
      <point x="747" y="96"/>
      <point x="634" y="72"/>
      <point x="544" y="72" type="curve"/>
      <point x="335" y="72"/>
      <point x="247" y="306"/>
      <point x="245" y="550" type="curve"/>
      <point x="246" y="857"/>
      <point x="385" y="1224"/>
      <point x="694" y="1224" type="curve"/>
      <point x="811" y="1224"/>
      <point x="873" y="1202"/>
      <point x="920" y="1168" type="curve"/>
      <point x="922" y="994" type="line"/>
      <point x="1025" y="994" type="line"/>
      <point x="1075" y="1250" type="line"/>
      <point x="1009" y="1250"/>
      <point x="935" y="1306"/>
      <point x="707" y="1306" type="curve"/>
      <point x="355" y="1306"/>
      <point x="76" y="998"/>
      <point x="80" y="532" type="curve"/>
      <point x="82" y="266"/>
      <point x="204" y="-14"/>
    </contour>
  </outline>
</glyph>
<glyph name="germandbls.sc" format="1">
  <advance width="1177"/>
  <outline>
    <contour>
      <point x="710" y="-18" type="curve"/>
      <point x="949" y="-18"/>
      <point x="1081" y="211"/>
      <point x="1088" y="396" type="curve"/>
      <point x="1097" y="666"/>
      <point x="900" y="761"/>
      <point x="763" y="759" type="curve"/>
      <point x="1049" y="1113" type="line"/>
      <point x="1071" y="1201" type="line"/>
      <point x="1014" y="1246"/>
      <point x="930" y="1301"/>
      <point x="733" y="1301" type="curve"/>
      <point x="436" y="1301"/>
      <point x="245" y="1060"/>
      <point x="202" y="775" type="curve"/>
      <point x="106" y="92" type="line"/>
      <point x="2" y="73" type="line"/>
      <point x="-3" y="0" type="line"/>
      <point x="254" y="0" type="line"/>
      <point x="354" y="711" type="line" smooth="yes"/>
      <point x="401" y="1068"/>
      <point x="513" y="1221"/>
      <point x="705" y="1221" type="curve"/>
      <point x="846" y="1219"/>
      <point x="924" y="1172"/>
      <point x="943" y="1130" type="curve"/>
      <point x="661" y="774" type="line"/>
      <point x="651" y="704" type="line"/>
      <point x="797" y="709"/>
      <point x="943" y="619"/>
      <point x="935" y="387" type="curve"/>
      <point x="929" y="199"/>
      <point x="840" y="63"/>
      <point x="725" y="63" type="curve"/>
      <point x="645" y="63"/>
      <point x="573" y="96"/>
      <point x="554" y="131" type="curve"/>
      <point x="542" y="273" type="line"/>
      <point x="454" y="273" type="line"/>
      <point x="420" y="53" type="line"/>
      <point x="467" y="47"/>
      <point x="558" y="-18"/>
    </contour>
  </outline>
</glyph>
<glyph name="h.sc" format="1">
  <advance width="1274"/>
  <outline>
    <contour>
      <point x="743" y="1292" type="move" name="top"/>
    </contour>
    <contour>
      <point x="576" y="0" type="move" name="bottom"/>
    </contour>
    <contour>
      <point x="15" y="62" type="line"/>
      <point x="7" y="0" type="line"/>
      <point x="415" y="0" type="line"/>
      <point x="423" y="62" type="line"/>
      <point x="292" y="84" type="line"/>
      <point x="445" y="1204" type="line"/>
      <point x="573" y="1222" type="line"/>
      <point x="582" y="1292" type="line"/>
      <point x="182" y="1292" type="line"/>
      <point x="173" y="1222" type="line"/>
      <point x="287" y="1204" type="line"/>
      <point x="134" y="84" type="line"/>
    </contour>
    <contour>
      <point x="322" y="705" type="line"/>
      <point x="321" y="613" type="line"/>
      <point x="980" y="613" type="line"/>
      <point x="981" y="705" type="line"/>
    </contour>
    <contour>
      <point x="719" y="62" type="line"/>
      <point x="715" y="0" type="line"/>
      <point x="1127" y="0" type="line"/>
      <point x="1137" y="62" type="line"/>
      <point x="1012" y="84" type="line"/>
      <point x="1165" y="1204" type="line"/>
      <point x="1283" y="1222" type="line"/>
      <point x="1291" y="1292" type="line"/>
      <point x="891" y="1292" type="line"/>
      <point x="882" y="1222" type="line"/>
      <point x="1007" y="1204" type="line"/>
      <point x="855" y="84" type="line"/>
    </contour>
  </outline>
</glyph>
<glyph name="i.sc" format="1">
  <advance width="586"/>
  <outline>
    <contour>
      <point x="412" y="1383" type="move" name="top"/>
    </contour>
    <contour>
      <point x="316" y="0" type="move" name="ogonek"/>
    </contour>
    <contour>
      <point x="227" y="0" type="move" name="bottom"/>
    </contour>
    <contour>
      <point x="25" y="62" type="line"/>
      <point x="19" y="0" type="line"/>
      <point x="431" y="0" type="line"/>
      <point x="437" y="62" type="line"/>
      <point x="305" y="88" type="line"/>
      <point x="458" y="1204" type="line"/>
      <point x="585" y="1222" type="line"/>
      <point x="595" y="1292" type="line"/>
      <point x="197" y="1292" type="line"/>
      <point x="187" y="1222" type="line"/>
      <point x="301" y="1204" type="line"/>
      <point x="148" y="88" type="line"/>
    </contour>
  </outline>
</glyph>
<glyph name="j.sc" format="1">
  <advance width="584"/>
  <outline>
    <contour>
      <point x="224" y="-142" type="move" name="btm"/>
    </contour>
    <contour>
      <point x="402" y="1292" type="move" name="top"/>
    </contour>
    <contour>
      <point x="-133" y="-230" type="curve"/>
      <point x="-106" y="-292" type="line"/>
      <point x="93" y="-257"/>
      <point x="260" y="-124"/>
      <point x="307" y="107" type="curve"/>
      <point x="324" y="191"/>
      <point x="399" y="717"/>
      <point x="466" y="1206" type="curve"/>
      <point x="603" y="1222" type="line"/>
      <point x="612" y="1292" type="line"/>
      <point x="188" y="1292" type="line"/>
      <point x="179" y="1222" type="line"/>
      <point x="312" y="1206" type="line"/>
      <point x="267" y="833"/>
      <point x="211" y="408"/>
      <point x="164" y="131" type="curve"/>
      <point x="143" y="-4"/>
      <point x="48" y="-179"/>
    </contour>
  </outline>
</glyph>
<glyph name="k.sc" format="1">
  <advance width="1140"/>
  <outline>
    <contour>
      <point x="697" y="1292" type="move" name="top"/>
    </contour>
    <contour>
      <point x="555" y="0" type="move" name="bottom"/>
    </contour>
    <contour>
      <point x="334" y="532" type="line"/>
      <point x="327" y="405" type="line"/>
      <point x="535" y="628" type="line"/>
      <point x="598" y="688" type="line"/>
      <point x="1068" y="1206" type="line"/>
      <point x="1167" y="1222" type="line"/>
      <point x="1177" y="1292" type="line"/>
      <point x="824" y="1292" type="line"/>
      <point x="814" y="1222" type="line"/>
      <point x="931" y="1204" type="line"/>
    </contour>
    <contour>
      <point x="14" y="62" type="line"/>
      <point x="6" y="0" type="line"/>
      <point x="415" y="0" type="line"/>
      <point x="421" y="62" type="line"/>
      <point x="291" y="84" type="line"/>
      <point x="447" y="1204" type="line"/>
      <point x="575" y="1222" type="line"/>
      <point x="583" y="1292" type="line"/>
      <point x="185" y="1292" type="line"/>
      <point x="177" y="1222" type="line"/>
      <point x="289" y="1204" type="line"/>
      <point x="134" y="84" type="line"/>
    </contour>
    <contour>
      <point x="848" y="0" type="curve"/>
      <point x="1077" y="0" type="line"/>
      <point x="1089" y="68" type="line"/>
      <point x="981" y="97" type="line"/>
      <point x="944" y="118"/>
      <point x="915" y="167"/>
      <point x="810" y="355" type="curve"/>
      <point x="764" y="435"/>
      <point x="646" y="660"/>
      <point x="597" y="738" type="curve"/>
      <point x="495" y="642" type="line"/>
      <point x="555" y="526"/>
      <point x="624" y="396"/>
      <point x="678" y="290" type="curve"/>
      <point x="740" y="168"/>
      <point x="817" y="0"/>
    </contour>
  </outline>
</glyph>
<glyph name="l.sc" format="1">
  <advance width="980"/>
  <outline>
    <contour>
      <point x="710" y="966" type="move" name="car"/>
    </contour>
    <contour>
      <point x="393" y="1292" type="move" name="top"/>
    </contour>
    <contour>
      <point x="455" y="0" type="move" name="bottom"/>
    </contour>
    <contour>
      <point x="14" y="62" type="line"/>
      <point x="6" y="0" type="line"/>
      <point x="830" y="0" type="line"/>
      <point x="914" y="380" type="line"/>
      <point x="827" y="396" type="line"/>
      <point x="706" y="91" type="line"/>
      <point x="289" y="84" type="line"/>
      <point x="444" y="1204" type="line"/>
      <point x="588" y="1222" type="line"/>
      <point x="597" y="1292" type="line"/>
      <point x="182" y="1292" type="line"/>
      <point x="173" y="1222" type="line"/>
      <point x="286" y="1204" type="line"/>
      <point x="133" y="84" type="line"/>
    </contour>
  </outline>
</glyph>
<glyph name="m.sc" format="1">
  <advance width="1570"/>
  <outline>
    <contour>
      <point x="890" y="1292" type="move" name="top"/>
    </contour>
    <contour>
      <point x="693" y="0" type="move" name="bottom"/>
    </contour>
    <contour>
      <point x="528" y="882" type="line"/>
      <point x="663" y="-16" type="line"/>
      <point x="748" y="-4" type="line"/>
      <point x="1148" y="904" type="line"/>
      <point x="1276" y="1218" type="line"/>
      <point x="1252" y="862" type="line"/>
      <point x="1210" y="82" type="line"/>
      <point x="1058" y="64" type="line"/>
      <point x="1051" y="0" type="line"/>
      <point x="1501" y="0" type="line"/>
      <point x="1507" y="62" type="line"/>
      <point x="1365" y="84" type="line"/>
      <point x="1404" y="1204" type="line"/>
      <point x="1553" y="1222" type="line"/>
      <point x="1561" y="1292" type="line"/>
      <point x="1214" y="1292" type="line"/>
      <point x="840" y="371" type="line"/>
      <point x="758" y="174" type="line"/>
      <point x="733" y="416" type="line"/>
      <point x="609" y="1292" type="line"/>
      <point x="236" y="1292" type="line"/>
      <point x="226" y="1222" type="line"/>
      <point x="380" y="1204" type="line"/>
      <point x="120" y="84" type="line"/>
      <point x="-21" y="62" type="line"/>
      <point x="-28" y="0" type="line"/>
      <point x="400" y="0" type="line"/>
      <point x="405" y="62" type="line"/>
      <point x="239" y="84" type="line"/>
      <point x="405" y="876" type="line"/>
      <point x="477" y="1216" type="line"/>
    </contour>
  </outline>
</glyph>
<glyph name="n.sc" format="1">
  <advance width="1257"/>
  <outline>
    <contour>
      <point x="720" y="1292" type="move" name="top"/>
    </contour>
    <contour>
      <point x="597" y="0" type="move" name="bottom"/>
    </contour>
    <contour>
      <point x="14" y="62" type="line"/>
      <point x="6" y="0" type="line"/>
      <point x="390" y="0" type="line"/>
      <point x="399" y="62" type="line"/>
      <point x="254" y="84" type="line"/>
      <point x="392" y="1220" type="line"/>
      <point x="358" y="1216" type="line"/>
      <point x="445" y="956" type="line"/>
      <point x="833" y="0" type="line"/>
      <point x="990" y="0" type="line"/>
      <point x="1166" y="1204" type="line"/>
      <point x="1290" y="1222" type="line"/>
      <point x="1295" y="1292" type="line"/>
      <point x="928" y="1292" type="line"/>
      <point x="920" y="1222" type="line"/>
      <point x="1053" y="1206" type="line"/>
      <point x="907" y="70" type="line"/>
      <point x="941" y="74" type="line"/>
      <point x="853" y="337" type="line"/>
      <point x="471" y="1292" type="line"/>
      <point x="184" y="1292" type="line"/>
      <point x="172" y="1222" type="line"/>
      <point x="287" y="1204" type="line"/>
      <point x="134" y="82" type="line"/>
    </contour>
  </outline>
</glyph>
<glyph name="o.sc" format="1">
  <advance width="1156"/>
  <outline>
    <contour>
      <point x="151" y="1292" type="move" name="topleft"/>
    </contour>
    <contour>
      <point x="602" y="648" type="move" name="center"/>
    </contour>
    <contour>
      <point x="508" y="0" type="move" name="bottom"/>
    </contour>
    <contour>
      <point x="680" y="1292" type="move" name="top"/>
    </contour>
    <contour>
      <point x="908" y="1232" type="move" name="topright"/>
    </contour>
    <contour>
      <point x="668" y="18" type="move" name="ogonek"/>
    </contour>
    <contour>
      <point x="507" y="-18" type="curve"/>
      <point x="864" y="-18"/>
      <point x="1096" y="328"/>
      <point x="1092" y="772" type="curve"/>
      <point x="1090" y="1105"/>
      <point x="938" y="1310"/>
      <point x="675" y="1310" type="curve"/>
      <point x="327" y="1310"/>
      <point x="83" y="972"/>
      <point x="85" y="528" type="curve"/>
      <point x="87" y="216"/>
      <point x="228" y="-18"/>
    </contour>
    <contour>
      <point x="527" y="69" type="curve"/>
      <point x="347" y="69"/>
      <point x="248" y="270"/>
      <point x="248" y="546" type="curve"/>
      <point x="247" y="934"/>
      <point x="419" y="1222"/>
      <point x="653" y="1222" type="curve"/>
      <point x="832" y="1222"/>
      <point x="925" y="1036"/>
      <point x="927" y="740" type="curve"/>
      <point x="929" y="356"/>
      <point x="755" y="69"/>
    </contour>
  </outline>
</glyph>
<glyph name="oe.sc" format="1">
  <advance width="1770"/>
  <outline>
    <contour>
      <point x="513" y="-18" type="curve"/>
      <point x="694" y="-18"/>
      <point x="844" y="86"/>
      <point x="942" y="247" type="curve"/>
      <point x="912" y="0" type="line"/>
      <point x="1656" y="0" type="line"/>
      <point x="1715" y="271" type="line"/>
      <point x="1627" y="290" type="line"/>
      <point x="1546" y="102" type="line"/>
      <point x="1063" y="87" type="line"/>
      <point x="1132" y="624" type="line"/>
      <point x="1508" y="611" type="line"/>
      <point x="1523" y="734" type="line"/>
      <point x="1141" y="714" type="line"/>
      <point x="1206" y="1216" type="line"/>
      <point x="1596" y="1204" type="line"/>
      <point x="1625" y="1036" type="line"/>
      <point x="1714" y="1036" type="line"/>
      <point x="1724" y="1292" type="line"/>
      <point x="1073" y="1292" type="line"/>
      <point x="1038" y="1013" type="line"/>
      <point x="981" y="1191"/>
      <point x="863" y="1308"/>
      <point x="677" y="1308" type="curve"/>
      <point x="333" y="1308"/>
      <point x="78" y="978"/>
      <point x="82" y="528" type="curve"/>
      <point x="84" y="179"/>
      <point x="252" y="-18"/>
    </contour>
    <contour>
      <point x="533" y="69" type="curve"/>
      <point x="332" y="69"/>
      <point x="245" y="278"/>
      <point x="244" y="583" type="curve"/>
      <point x="244" y="942"/>
      <point x="423" y="1220"/>
      <point x="658" y="1220" type="curve"/>
      <point x="838" y="1220"/>
      <point x="935" y="1069"/>
      <point x="936" y="744" type="curve"/>
      <point x="937" y="356"/>
      <point x="771" y="69"/>
    </contour>
  </outline>
</glyph>
<glyph name="p.sc" format="1">
  <advance width="1008"/>
  <outline>
    <contour>
      <point x="634" y="1292" type="move" name="top"/>
    </contour>
    <contour>
      <point x="11" y="62" type="line"/>
      <point x="4" y="0" type="line"/>
      <point x="447" y="0" type="line"/>
      <point x="455" y="62" type="line"/>
      <point x="290" y="84" type="line"/>
      <point x="455" y="1281" type="line"/>
      <point x="410" y="1203" type="line"/>
      <point x="443" y="1210"/>
      <point x="552" y="1224"/>
      <point x="594" y="1224" type="curve"/>
      <point x="762" y="1224"/>
      <point x="839" y="1146"/>
      <point x="836" y="965" type="curve"/>
      <point x="831" y="695"/>
      <point x="719" y="546"/>
      <point x="486" y="546" type="curve"/>
      <point x="442" y="546"/>
      <point x="398" y="550"/>
      <point x="340" y="560" type="curve"/>
      <point x="313" y="466" type="line"/>
      <point x="367" y="464"/>
      <point x="417" y="460"/>
      <point x="479" y="460" type="curve"/>
      <point x="770" y="460"/>
      <point x="996" y="641"/>
      <point x="1001" y="973" type="curve"/>
      <point x="1004" y="1199"/>
      <point x="869" y="1306"/>
      <point x="620" y="1306" type="curve"/>
      <point x="534" y="1306"/>
      <point x="475" y="1292"/>
      <point x="384" y="1292" type="curve"/>
      <point x="182" y="1292" type="line"/>
      <point x="175" y="1222" type="line"/>
      <point x="287" y="1204" type="line"/>
      <point x="132" y="84" type="line"/>
    </contour>
  </outline>
</glyph>
<glyph name="q.sc" format="1">
  <advance width="1153"/>
  <outline>
    <contour>
      <point x="766" y="-313" type="curve"/>
      <point x="871" y="-313"/>
      <point x="968" y="-272"/>
      <point x="1009" y="-238" type="curve"/>
      <point x="1008" y="-138" type="line"/>
      <point x="957" y="-162"/>
      <point x="875" y="-180"/>
      <point x="816" y="-180" type="curve"/>
      <point x="694" y="-180"/>
      <point x="576" y="-156"/>
      <point x="576" y="-9" type="curve"/>
      <point x="483" y="-13" type="line"/>
      <point x="469" y="-93"/>
      <point x="483" y="-159"/>
      <point x="517" y="-207" type="curve"/>
      <point x="567" y="-278"/>
      <point x="660" y="-313"/>
    </contour>
    <contour>
      <point x="509" y="-18" type="curve"/>
      <point x="866" y="-18"/>
      <point x="1098" y="328"/>
      <point x="1094" y="772" type="curve"/>
      <point x="1092" y="1105"/>
      <point x="940" y="1310"/>
      <point x="677" y="1310" type="curve"/>
      <point x="329" y="1310"/>
      <point x="85" y="972"/>
      <point x="87" y="528" type="curve"/>
      <point x="89" y="216"/>
      <point x="230" y="-18"/>
    </contour>
    <contour>
      <point x="529" y="69" type="curve"/>
      <point x="349" y="69"/>
      <point x="250" y="270"/>
      <point x="250" y="546" type="curve"/>
      <point x="249" y="934"/>
      <point x="421" y="1222"/>
      <point x="655" y="1222" type="curve"/>
      <point x="834" y="1222"/>
      <point x="927" y="1036"/>
      <point x="929" y="740" type="curve"/>
      <point x="931" y="356"/>
      <point x="757" y="69"/>
    </contour>
  </outline>
</glyph>
<glyph name="r.sc" format="1">
  <advance width="1113"/>
  <outline>
    <contour>
      <point x="641" y="1292" type="move" name="top"/>
    </contour>
    <contour>
      <point x="565" y="0" type="move" name="bottom"/>
    </contour>
    <contour>
      <point x="19" y="62" type="line"/>
      <point x="14" y="0" type="line"/>
      <point x="432" y="0" type="line"/>
      <point x="437" y="62" type="line"/>
      <point x="279" y="84" type="line"/>
      <point x="442" y="1282" type="line"/>
      <point x="387" y="1204" type="line"/>
      <point x="443" y="1213"/>
      <point x="529" y="1224"/>
      <point x="588" y="1224" type="curve"/>
      <point x="761" y="1224"/>
      <point x="834" y="1145"/>
      <point x="832" y="1005" type="curve"/>
      <point x="828" y="820"/>
      <point x="741" y="663"/>
      <point x="551" y="652" type="curve"/>
      <point x="476" y="653"/>
      <point x="403" y="653"/>
      <point x="328" y="654" type="curve"/>
      <point x="312" y="571" type="line"/>
      <point x="383" y="571"/>
      <point x="455" y="571"/>
      <point x="527" y="571" type="curve"/>
      <point x="597" y="568"/>
      <point x="670" y="374"/>
      <point x="736" y="205" type="curve"/>
      <point x="791" y="41"/>
      <point x="822" y="0"/>
      <point x="860" y="0" type="curve"/>
      <point x="1048" y="0" type="line"/>
      <point x="1051" y="71" type="line"/>
      <point x="940" y="70"/>
      <point x="936" y="99"/>
      <point x="854" y="290" type="curve"/>
      <point x="817" y="374"/>
      <point x="725" y="583"/>
      <point x="665" y="600" type="curve"/>
      <point x="633" y="576" type="line"/>
      <point x="864" y="618"/>
      <point x="984" y="788"/>
      <point x="988" y="1015" type="curve"/>
      <point x="992" y="1211"/>
      <point x="865" y="1306"/>
      <point x="620" y="1306" type="curve"/>
      <point x="528" y="1306"/>
      <point x="466" y="1292"/>
      <point x="390" y="1292" type="curve"/>
      <point x="182" y="1292" type="line"/>
      <point x="174" y="1222" type="line"/>
      <point x="284" y="1204" type="line"/>
      <point x="131" y="84" type="line"/>
    </contour>
  </outline>
</glyph>
<glyph name="s.sc" format="1">
  <advance width="907"/>
  <outline>
    <contour>
      <point x="566" y="1292" type="move" name="top"/>
    </contour>
    <contour>
      <point x="385" y="0" type="move" name="bottom"/>
    </contour>
    <contour>
      <point x="383" y="-20" type="curve"/>
      <point x="642" y="-20"/>
      <point x="812" y="136"/>
      <point x="817" y="364" type="curve"/>
      <point x="821" y="556"/>
      <point x="665" y="646"/>
      <point x="552" y="719" type="curve"/>
      <point x="428" y="795"/>
      <point x="312" y="855"/>
      <point x="315" y="1024" type="curve"/>
      <point x="318" y="1164"/>
      <point x="437" y="1223"/>
      <point x="553" y="1223" type="curve"/>
      <point x="647" y="1223"/>
      <point x="703" y="1197"/>
      <point x="736" y="1169" type="curve"/>
      <point x="747" y="1004" type="line"/>
      <point x="833" y="1004" type="line"/>
      <point x="873" y="1230" type="line"/>
      <point x="827" y="1262"/>
      <point x="727" y="1306"/>
      <point x="567" y="1306" type="curve"/>
      <point x="346" y="1306"/>
      <point x="170" y="1178"/>
      <point x="166" y="964" type="curve"/>
      <point x="161" y="753"/>
      <point x="326" y="662"/>
      <point x="448" y="588" type="curve"/>
      <point x="567" y="514"/>
      <point x="661" y="460"/>
      <point x="663" y="293" type="curve"/>
      <point x="655" y="136"/>
      <point x="518" y="64"/>
      <point x="384" y="64" type="curve"/>
      <point x="303" y="64"/>
      <point x="205" y="96"/>
      <point x="178" y="143" type="curve"/>
      <point x="170" y="322" type="line"/>
      <point x="76" y="322" type="line"/>
      <point x="39" y="80" type="line"/>
      <point x="78" y="44"/>
      <point x="223" y="-20"/>
    </contour>
  </outline>
</glyph>
<glyph name="schwa.sc" format="1">
  <advance width="1086"/>
  <outline>
    <contour>
      <point x="420" y="-20" type="curve"/>
      <point x="742" y="-20"/>
      <point x="1016" y="314"/>
      <point x="1025" y="772" type="curve"/>
      <point x="1031" y="1102"/>
      <point x="873" y="1306"/>
      <point x="621" y="1306" type="curve"/>
      <point x="378" y="1306"/>
      <point x="289" y="1242"/>
      <point x="196" y="1238" type="curve"/>
      <point x="157" y="988" type="line"/>
      <point x="241" y="988" type="line"/>
      <point x="297" y="1140" type="line"/>
      <point x="341" y="1180"/>
      <point x="433" y="1228"/>
      <point x="575" y="1228" type="curve"/>
      <point x="754" y="1228"/>
      <point x="872" y="1063"/>
      <point x="864" y="750" type="curve"/>
      <point x="864" y="718"/>
      <point x="861" y="686"/>
      <point x="859" y="656" type="curve"/>
      <point x="98" y="654" type="line"/>
      <point x="80" y="608"/>
      <point x="65" y="514"/>
      <point x="63" y="420" type="curve"/>
      <point x="58" y="138"/>
      <point x="191" y="-20"/>
    </contour>
    <contour>
      <point x="459" y="64" type="curve"/>
      <point x="293" y="64"/>
      <point x="215" y="220"/>
      <point x="218" y="392" type="curve"/>
      <point x="219" y="456"/>
      <point x="231" y="517"/>
      <point x="244" y="576" type="curve"/>
      <point x="849" y="576" type="line"/>
      <point x="801" y="232"/>
      <point x="644" y="64"/>
    </contour>
  </outline>
</glyph>
<glyph name="t.sc" format="1">
  <advance width="1060"/>
  <outline>
    <contour>
      <point x="630" y="1292" type="move" name="top"/>
    </contour>
    <contour>
      <point x="461" y="0" type="move" name="bottom"/>
    </contour>
    <contour>
      <point x="187" y="67" type="line"/>
      <point x="182" y="0" type="line"/>
      <point x="752" y="0" type="line"/>
      <point x="758" y="67" type="line"/>
      <point x="547" y="83" type="line"/>
      <point x="702" y="1216" type="line"/>
      <point x="986" y="1202" type="line"/>
      <point x="976" y="897" type="line"/>
      <point x="1060" y="899" type="line"/>
      <point x="1116" y="1292" type="line"/>
      <point x="144" y="1292" type="line"/>
      <point x="79" y="899" type="line"/>
      <point x="168" y="899" type="line"/>
      <point x="252" y="1202" type="line"/>
      <point x="546" y="1216" type="line"/>
      <point x="391" y="83" type="line"/>
    </contour>
  </outline>
</glyph>
<glyph name="u.sc" format="1">
  <advance width="1152"/>
  <outline>
    <contour>
      <point x="667" y="1292" type="move" name="top"/>
    </contour>
    <contour>
      <point x="634" y="16" type="move" name="ogonek"/>
    </contour>
    <contour>
      <point x="1227" y="1292" type="move" name="topright"/>
    </contour>
    <contour>
      <point x="503" y="0" type="move" name="bottom"/>
    </contour>
    <contour>
      <point x="508" y="-18" type="curve"/>
      <point x="801" y="-18"/>
      <point x="957" y="134"/>
      <point x="1009" y="532" type="curve"/>
      <point x="1098" y="1206" type="line"/>
      <point x="1205" y="1222" type="line"/>
      <point x="1213" y="1292" type="line"/>
      <point x="874" y="1292" type="line"/>
      <point x="867" y="1222" type="line"/>
      <point x="980" y="1204" type="line"/>
      <point x="891" y="532" type="line" smooth="yes"/>
      <point x="853" y="244"/>
      <point x="758" y="62"/>
      <point x="534" y="62" type="curve"/>
      <point x="367" y="62"/>
      <point x="287" y="177"/>
      <point x="286" y="356" type="curve"/>
      <point x="286" y="416"/>
      <point x="288" y="454"/>
      <point x="296" y="516" type="curve"/>
      <point x="388" y="1204" type="line"/>
      <point x="522" y="1222" type="line"/>
      <point x="529" y="1292" type="line"/>
      <point x="122" y="1292" type="line"/>
      <point x="115" y="1222" type="line"/>
      <point x="229" y="1206" type="line"/>
      <point x="137" y="504" type="line" smooth="yes"/>
      <point x="131" y="456"/>
      <point x="129" y="424"/>
      <point x="130" y="362" type="curve"/>
      <point x="132" y="130"/>
      <point x="259" y="-18"/>
    </contour>
  </outline>
</glyph>
<glyph name="v.sc" format="1">
  <advance width="1004"/>
  <outline>
    <contour>
      <point x="680" y="1444" type="move" name="top"/>
    </contour>
    <contour>
      <point x="160" y="1204" type="line"/>
      <point x="348" y="-16" type="line"/>
      <point x="486" y="-8" type="line"/>
      <point x="1027" y="1206" type="line"/>
      <point x="1129" y="1222" type="line"/>
      <point x="1137" y="1292" type="line"/>
      <point x="789" y="1292" type="line"/>
      <point x="782" y="1222" type="line"/>
      <point x="910" y="1204" type="line"/>
      <point x="556" y="389" type="line"/>
      <point x="428" y="68" type="line"/>
      <point x="467" y="64" type="line"/>
      <point x="426" y="389" type="line"/>
      <point x="317" y="1204" type="line"/>
      <point x="463" y="1222" type="line"/>
      <point x="471" y="1292" type="line"/>
      <point x="52" y="1292" type="line"/>
      <point x="45" y="1222" type="line"/>
    </contour>
  </outline>
</glyph>
<glyph name="w.sc" format="1">
  <advance width="1503"/>
  <outline>
    <contour>
      <point x="875" y="1292" type="move" name="top"/>
    </contour>
    <contour>
      <point x="687" y="0" type="move" name="bottom"/>
    </contour>
    <contour>
      <point x="145" y="1204" type="line"/>
      <point x="305" y="-8" type="line"/>
      <point x="455" y="-8" type="line"/>
      <point x="818" y="923" type="line"/>
      <point x="793" y="1117" type="line"/>
      <point x="492" y="333" type="line"/>
      <point x="395" y="70" type="line"/>
      <point x="432" y="66" type="line"/>
      <point x="392" y="376" type="line"/>
      <point x="296" y="1206" type="line"/>
      <point x="442" y="1222" type="line"/>
      <point x="447" y="1292" type="line"/>
      <point x="35" y="1292" type="line"/>
      <point x="28" y="1222" type="line"/>
    </contour>
    <contour>
      <point x="766" y="1206" type="line"/>
      <point x="887" y="-8" type="line"/>
      <point x="1038" y="-8" type="line"/>
      <point x="1559" y="1204" type="line"/>
      <point x="1677" y="1222" type="line"/>
      <point x="1687" y="1292" type="line"/>
      <point x="1316" y="1292" type="line"/>
      <point x="1310" y="1222" type="line"/>
      <point x="1442" y="1204" type="line"/>
      <point x="1093" y="350" type="line"/>
      <point x="981" y="71" type="line"/>
      <point x="1015" y="66" type="line"/>
      <point x="995" y="376" type="line"/>
      <point x="922" y="1206" type="line"/>
      <point x="1065" y="1222" type="line"/>
      <point x="1078" y="1292" type="line"/>
      <point x="658" y="1292" type="line"/>
      <point x="650" y="1222" type="line"/>
    </contour>
  </outline>
</glyph>
<glyph name="x.sc" format="1">
  <advance width="1111"/>
  <outline>
    <contour>
      <point x="-33" y="62" type="line"/>
      <point x="-39" y="0" type="line"/>
      <point x="353" y="0" type="line"/>
      <point x="360" y="62" type="line"/>
      <point x="217" y="84" type="line"/>
      <point x="537" y="560" type="line"/>
      <point x="648" y="660" type="line"/>
      <point x="1047" y="1206" type="line"/>
      <point x="1165" y="1222" type="line"/>
      <point x="1170" y="1292" type="line"/>
      <point x="781" y="1292" type="line"/>
      <point x="775" y="1222" type="line"/>
      <point x="910" y="1204" type="line"/>
      <point x="605" y="748" type="line"/>
      <point x="495" y="652" type="line"/>
      <point x="77" y="82" type="line"/>
    </contour>
    <contour>
      <point x="594" y="62" type="line"/>
      <point x="589" y="0" type="line"/>
      <point x="1045" y="0" type="line"/>
      <point x="1049" y="62" type="line"/>
      <point x="920" y="84" type="line"/>
      <point x="648" y="660" type="line"/>
      <point x="605" y="748" type="line"/>
      <point x="428" y="1206" type="line"/>
      <point x="566" y="1222" type="line"/>
      <point x="573" y="1292" type="line"/>
      <point x="136" y="1292" type="line"/>
      <point x="127" y="1222" type="line"/>
      <point x="247" y="1202" type="line"/>
      <point x="495" y="652" type="line"/>
      <point x="537" y="560" type="line"/>
      <point x="736" y="82" type="line"/>
    </contour>
  </outline>
</glyph>
<glyph name="y.sc" format="1">
  <advance width="995"/>
  <outline>
    <contour>
      <point x="152" y="1292" type="move" name="topleft"/>
    </contour>
    <contour>
      <point x="620" y="1292" type="move" name="top"/>
    </contour>
    <contour>
      <point x="454" y="0" type="move" name="bottom"/>
    </contour>
    <contour>
      <point x="197" y="62" type="line"/>
      <point x="191" y="0" type="line"/>
      <point x="719" y="0" type="line"/>
      <point x="726" y="62" type="line"/>
      <point x="541" y="84" type="line"/>
      <point x="606" y="569" type="line"/>
      <point x="555" y="442" type="line"/>
      <point x="1018" y="1206" type="line"/>
      <point x="1112" y="1222" type="line"/>
      <point x="1120" y="1292" type="line"/>
      <point x="771" y="1292" type="line"/>
      <point x="761" y="1222" type="line"/>
      <point x="891" y="1204" type="line"/>
      <point x="614" y="704" type="line"/>
      <point x="510" y="532" type="line"/>
      <point x="573" y="525" type="line"/>
      <point x="511" y="706" type="line"/>
      <point x="327" y="1204" type="line"/>
      <point x="478" y="1222" type="line"/>
      <point x="489" y="1292" type="line"/>
      <point x="58" y="1292" type="line"/>
      <point x="52" y="1222" type="line"/>
      <point x="150" y="1204" type="line"/>
      <point x="472" y="438" type="line"/>
      <point x="452" y="569" type="line"/>
      <point x="389" y="84" type="line"/>
    </contour>
  </outline>
</glyph>
<glyph name="z.sc" format="1">
  <advance width="993"/>
  <outline>
    <contour>
      <point x="589" y="1292" type="move" name="top"/>
    </contour>
    <contour>
      <point x="444" y="0" type="move" name="bottom"/>
    </contour>
    <contour>
      <point x="-4" y="64" type="line"/>
      <point x="14" y="0" type="line"/>
      <point x="862" y="0" type="line"/>
      <point x="941" y="309" type="line"/>
      <point x="851" y="332" type="line"/>
      <point x="741" y="96" type="line"/>
      <point x="183" y="78" type="line"/>
      <point x="298" y="230" type="line"/>
      <point x="1011" y="1232" type="line"/>
      <point x="995" y="1292" type="line"/>
      <point x="208" y="1292" type="line"/>
      <point x="160" y="996" type="line"/>
      <point x="248" y="980" type="line"/>
      <point x="327" y="1204" type="line"/>
      <point x="835" y="1210" type="line"/>
      <point x="697" y="1043" type="line"/>
    </contour>
  </outline>
</glyph>
